<mxfile host="drawio-plugin" modified="2025-10-10T04:15:17.218Z" agent="Mozilla/5.0 (Windows NT 10.0; Win64; x64) AppleWebKit/537.36 (KHTML, like Gecko) Chrome/122.0.0.0 Safari/537.36" etag="x31Ojob6K889JRM0cKDq" version="22.1.22" type="embed">
  <diagram id="23iRSUPoRavnBvh4doch" name="Page-1">
    <mxGraphModel dx="2228" dy="768" grid="0" gridSize="10" guides="1" tooltips="1" connect="1" arrows="1" fold="1" page="0" pageScale="1" pageWidth="827" pageHeight="1169" background="none" math="0" shadow="0">
      <root>
        <mxCell id="0" />
        <mxCell id="1" parent="0" />
        <mxCell id="2" value="&lt;font style=&quot;font-size: 29px;&quot;&gt;Report Analyst&lt;/font&gt;" style="shape=umlActor;verticalLabelPosition=bottom;verticalAlign=top;html=1;outlineConnect=0;" parent="1" vertex="1">
          <mxGeometry x="-370" y="324" width="100" height="190" as="geometry" />
        </mxCell>
        <mxCell id="52" value="&lt;font style=&quot;font-size: 30px;&quot;&gt;World Population DB&lt;/font&gt;" style="shape=datastore;whiteSpace=wrap;html=1;fillColor=#519e47;" parent="1" vertex="1">
          <mxGeometry x="986" y="250" width="450" height="514" as="geometry" />
        </mxCell>
        <mxCell id="100" value="&lt;font style=&quot;font-size: 25px;&quot;&gt;World Population System&lt;/font&gt;" style="shape=umlFrame;whiteSpace=wrap;html=1;pointerEvents=0;recursiveResize=0;container=1;collapsible=0;width=298;height=88;" parent="1" vertex="1">
          <mxGeometry y="10" width="880" height="806" as="geometry" />
        </mxCell>
        <mxCell id="5" value="&lt;font style=&quot;font-size: 16px;&quot;&gt;&lt;br&gt;Generate &lt;br&gt;City Reports&lt;/font&gt;" style="ellipse;whiteSpace=wrap;html=1;fillColor=#d5e8d4;gradientColor=#97d077;strokeColor=#82b366;" parent="100" vertex="1">
          <mxGeometry x="68" y="390" width="176" height="82" as="geometry" />
        </mxCell>
        <mxCell id="16" value="&lt;span style=&quot;font-size: 14px;&quot; data-end=&quot;830&quot; data-start=&quot;807&quot;&gt;Retrieve All Cities &lt;br&gt;in the World&lt;/span&gt;" style="ellipse;whiteSpace=wrap;html=1;" parent="100" vertex="1">
          <mxGeometry x="406" y="90" width="200" height="50" as="geometry" />
        </mxCell>
        <mxCell id="17" value="&lt;span style=&quot;font-size: 14px;&quot; data-end=&quot;916&quot; data-start=&quot;884&quot;&gt;Retrieve Cities &lt;br&gt;by Continent&lt;/span&gt;" style="ellipse;whiteSpace=wrap;html=1;" parent="100" vertex="1">
          <mxGeometry x="408" y="157" width="200" height="50" as="geometry" />
        </mxCell>
        <mxCell id="19" value="&lt;span style=&quot;font-size: 14px;&quot; data-end=&quot;916&quot; data-start=&quot;884&quot;&gt;Retrieve Cities &lt;br&gt;by Region&lt;/span&gt;" style="ellipse;whiteSpace=wrap;html=1;" parent="100" vertex="1">
          <mxGeometry x="408" y="222" width="200" height="65" as="geometry" />
        </mxCell>
        <mxCell id="21" value="&lt;span style=&quot;font-size: 14px;&quot; data-end=&quot;1070&quot; data-start=&quot;1040&quot;&gt;Retrieve Cities &lt;br&gt;by Country&lt;/span&gt;" style="ellipse;whiteSpace=wrap;html=1;" parent="100" vertex="1">
          <mxGeometry x="408" y="307" width="200" height="50" as="geometry" />
        </mxCell>
        <mxCell id="22" value="&lt;span style=&quot;font-size: 14px;&quot; data-end=&quot;1148&quot; data-start=&quot;1117&quot;&gt;Retrieve Cities &lt;br&gt;by District&lt;/span&gt;" style="ellipse;whiteSpace=wrap;html=1;" parent="100" vertex="1">
          <mxGeometry x="408" y="377" width="200" height="50" as="geometry" />
        </mxCell>
        <mxCell id="23" value="&lt;span style=&quot;font-size: 14px;&quot; data-end=&quot;1226&quot; data-start=&quot;1196&quot;&gt;List Top N Cities &lt;br&gt;in the World&lt;/span&gt;" style="ellipse;whiteSpace=wrap;html=1;" parent="100" vertex="1">
          <mxGeometry x="408" y="437" width="200" height="65" as="geometry" />
        </mxCell>
        <mxCell id="24" value="&lt;font style=&quot;font-size: 14px;&quot;&gt;List Top N Cities &lt;br&gt;in Continent&lt;/font&gt;" style="ellipse;whiteSpace=wrap;html=1;" parent="100" vertex="1">
          <mxGeometry x="408" y="517" width="200" height="50" as="geometry" />
        </mxCell>
        <mxCell id="25" value="&lt;span style=&quot;font-size: 14px;&quot; data-end=&quot;1412&quot; data-start=&quot;1381&quot;&gt;List Top N Cities &lt;br&gt;in Region&lt;/span&gt;" style="ellipse;whiteSpace=wrap;html=1;" parent="100" vertex="1">
          <mxGeometry x="408" y="587" width="200" height="50" as="geometry" />
        </mxCell>
        <mxCell id="26" value="&lt;span style=&quot;font-size: 14px;&quot; data-end=&quot;1504&quot; data-start=&quot;1472&quot;&gt;List Top N Cities &lt;br&gt;in Country&lt;/span&gt;" style="ellipse;whiteSpace=wrap;html=1;" parent="100" vertex="1">
          <mxGeometry x="418" y="647" width="200" height="50" as="geometry" />
        </mxCell>
        <mxCell id="27" value="&lt;span style=&quot;font-size: 14px;&quot; data-end=&quot;1598&quot; data-start=&quot;1565&quot;&gt;List Top N Cities &lt;br&gt;in District&lt;/span&gt;" style="ellipse;whiteSpace=wrap;html=1;" parent="100" vertex="1">
          <mxGeometry x="421" y="714" width="200" height="50" as="geometry" />
        </mxCell>
        <mxCell id="67" value="&lt;font style=&quot;font-size: 13px;&quot;&gt;&amp;lt;&amp;lt;include&amp;gt;&amp;gt;&lt;/font&gt;" style="html=1;verticalAlign=bottom;labelBackgroundColor=none;endArrow=open;endFill=0;dashed=1;rounded=0;exitX=1;exitY=0.5;exitDx=0;exitDy=0;entryX=0;entryY=0.5;entryDx=0;entryDy=0;" parent="100" source="5" edge="1">
          <mxGeometry width="160" relative="1" as="geometry">
            <mxPoint x="208" y="17" as="sourcePoint" />
            <mxPoint x="408" y="112" as="targetPoint" />
          </mxGeometry>
        </mxCell>
        <mxCell id="68" value="&lt;font style=&quot;font-size: 13px;&quot;&gt;&amp;lt;&amp;lt;include&amp;gt;&amp;gt;&lt;/font&gt;" style="html=1;verticalAlign=bottom;labelBackgroundColor=none;endArrow=open;endFill=0;dashed=1;rounded=0;exitX=1;exitY=0.5;exitDx=0;exitDy=0;entryX=0;entryY=0.5;entryDx=0;entryDy=0;" parent="100" source="5" target="17" edge="1">
          <mxGeometry width="160" relative="1" as="geometry">
            <mxPoint x="208" y="17" as="sourcePoint" />
            <mxPoint x="368" y="17" as="targetPoint" />
          </mxGeometry>
        </mxCell>
        <mxCell id="69" value="&lt;font style=&quot;font-size: 13px;&quot;&gt;&amp;lt;&amp;lt;include&amp;gt;&amp;gt;&lt;/font&gt;" style="html=1;verticalAlign=bottom;labelBackgroundColor=none;endArrow=open;endFill=0;dashed=1;rounded=0;exitX=1;exitY=0.5;exitDx=0;exitDy=0;entryX=0;entryY=0.5;entryDx=0;entryDy=0;" parent="100" source="5" target="19" edge="1">
          <mxGeometry width="160" relative="1" as="geometry">
            <mxPoint x="208" y="237" as="sourcePoint" />
            <mxPoint x="368" y="237" as="targetPoint" />
          </mxGeometry>
        </mxCell>
        <mxCell id="70" value="&lt;font style=&quot;font-size: 13px;&quot;&gt;&amp;lt;&amp;lt;include&amp;gt;&amp;gt;&lt;/font&gt;" style="html=1;verticalAlign=bottom;labelBackgroundColor=none;endArrow=open;endFill=0;dashed=1;rounded=0;exitX=1;exitY=0.5;exitDx=0;exitDy=0;entryX=0;entryY=0.5;entryDx=0;entryDy=0;" parent="100" source="5" target="21" edge="1">
          <mxGeometry width="160" relative="1" as="geometry">
            <mxPoint x="238" y="307" as="sourcePoint" />
            <mxPoint x="368" y="237" as="targetPoint" />
          </mxGeometry>
        </mxCell>
        <mxCell id="71" value="&lt;font style=&quot;font-size: 13px;&quot;&gt;&amp;lt;&amp;lt;include&amp;gt;&amp;gt;&lt;/font&gt;" style="html=1;verticalAlign=bottom;labelBackgroundColor=none;endArrow=open;endFill=0;dashed=1;rounded=0;exitX=1;exitY=0.5;exitDx=0;exitDy=0;entryX=0;entryY=0.5;entryDx=0;entryDy=0;" parent="100" source="5" target="22" edge="1">
          <mxGeometry width="160" relative="1" as="geometry">
            <mxPoint x="208" y="237" as="sourcePoint" />
            <mxPoint x="368" y="237" as="targetPoint" />
          </mxGeometry>
        </mxCell>
        <mxCell id="72" value="&lt;font style=&quot;font-size: 13px;&quot;&gt;&amp;lt;&amp;lt;include&amp;gt;&amp;gt;&lt;/font&gt;" style="html=1;verticalAlign=bottom;labelBackgroundColor=none;endArrow=open;endFill=0;dashed=1;rounded=0;entryX=0;entryY=0.5;entryDx=0;entryDy=0;exitX=1;exitY=0.5;exitDx=0;exitDy=0;" parent="100" target="23" edge="1" source="5">
          <mxGeometry width="160" relative="1" as="geometry">
            <mxPoint x="238" y="307" as="sourcePoint" />
            <mxPoint x="368" y="237" as="targetPoint" />
          </mxGeometry>
        </mxCell>
        <mxCell id="73" value="&lt;font style=&quot;font-size: 13px;&quot;&gt;&amp;lt;&amp;lt;include&amp;gt;&amp;gt;&lt;/font&gt;" style="html=1;verticalAlign=bottom;labelBackgroundColor=none;endArrow=open;endFill=0;dashed=1;rounded=0;exitX=1;exitY=0.5;exitDx=0;exitDy=0;entryX=0;entryY=0.5;entryDx=0;entryDy=0;" parent="100" source="5" target="24" edge="1">
          <mxGeometry width="160" relative="1" as="geometry">
            <mxPoint x="208" y="237" as="sourcePoint" />
            <mxPoint x="368" y="237" as="targetPoint" />
          </mxGeometry>
        </mxCell>
        <mxCell id="74" value="&lt;font style=&quot;font-size: 13px;&quot;&gt;&amp;lt;&amp;lt;include&amp;gt;&amp;gt;&lt;/font&gt;" style="html=1;verticalAlign=bottom;labelBackgroundColor=none;endArrow=open;endFill=0;dashed=1;rounded=0;exitX=1;exitY=0.5;exitDx=0;exitDy=0;entryX=0;entryY=0.5;entryDx=0;entryDy=0;" parent="100" source="5" target="25" edge="1">
          <mxGeometry width="160" relative="1" as="geometry">
            <mxPoint x="208" y="237" as="sourcePoint" />
            <mxPoint x="368" y="237" as="targetPoint" />
          </mxGeometry>
        </mxCell>
        <mxCell id="75" value="&lt;font style=&quot;font-size: 13px;&quot;&gt;&amp;lt;&amp;lt;include&amp;gt;&amp;gt;&lt;/font&gt;" style="html=1;verticalAlign=bottom;labelBackgroundColor=none;endArrow=open;endFill=0;dashed=1;rounded=0;exitX=1;exitY=0.5;exitDx=0;exitDy=0;entryX=0;entryY=0.5;entryDx=0;entryDy=0;" parent="100" source="5" target="26" edge="1">
          <mxGeometry width="160" relative="1" as="geometry">
            <mxPoint x="208" y="697" as="sourcePoint" />
            <mxPoint x="368" y="697" as="targetPoint" />
          </mxGeometry>
        </mxCell>
        <mxCell id="76" value="&lt;font style=&quot;font-size: 13px;&quot;&gt;&amp;lt;&amp;lt;include&amp;gt;&amp;gt;&lt;/font&gt;" style="html=1;verticalAlign=bottom;labelBackgroundColor=none;endArrow=open;endFill=0;dashed=1;rounded=0;exitX=1;exitY=0.5;exitDx=0;exitDy=0;entryX=0;entryY=0.5;entryDx=0;entryDy=0;" parent="100" source="5" target="27" edge="1">
          <mxGeometry width="160" relative="1" as="geometry">
            <mxPoint x="268" y="687" as="sourcePoint" />
            <mxPoint x="408" y="732" as="targetPoint" />
          </mxGeometry>
        </mxCell>
        <mxCell id="102" value="" style="endArrow=none;html=1;rounded=0;entryX=0;entryY=0.5;entryDx=0;entryDy=0;exitX=1;exitY=0.3333333333333333;exitDx=0;exitDy=0;exitPerimeter=0;" parent="1" source="2" target="5" edge="1">
          <mxGeometry width="50" height="50" relative="1" as="geometry">
            <mxPoint x="-450" y="800" as="sourcePoint" />
            <mxPoint x="230" y="110" as="targetPoint" />
          </mxGeometry>
        </mxCell>
        <mxCell id="115" value="" style="endArrow=none;html=1;rounded=0;entryX=1;entryY=0.5;entryDx=0;entryDy=0;exitX=0;exitY=0.3;exitDx=0;exitDy=0;" parent="1" source="52" target="16" edge="1">
          <mxGeometry width="50" height="50" relative="1" as="geometry">
            <mxPoint x="630" y="310" as="sourcePoint" />
            <mxPoint x="680" y="260" as="targetPoint" />
          </mxGeometry>
        </mxCell>
        <mxCell id="116" value="" style="endArrow=none;html=1;rounded=0;entryX=0;entryY=0.3;entryDx=0;entryDy=0;exitX=1;exitY=0.5;exitDx=0;exitDy=0;" parent="1" source="17" target="52" edge="1">
          <mxGeometry width="50" height="50" relative="1" as="geometry">
            <mxPoint x="630" y="310" as="sourcePoint" />
            <mxPoint x="680" y="260" as="targetPoint" />
          </mxGeometry>
        </mxCell>
        <mxCell id="117" value="" style="endArrow=none;html=1;rounded=0;exitX=1;exitY=0.5;exitDx=0;exitDy=0;entryX=0;entryY=0.3;entryDx=0;entryDy=0;" parent="1" source="19" target="52" edge="1">
          <mxGeometry width="50" height="50" relative="1" as="geometry">
            <mxPoint x="680" y="260" as="sourcePoint" />
            <mxPoint x="730" y="210" as="targetPoint" />
          </mxGeometry>
        </mxCell>
        <mxCell id="118" value="" style="endArrow=none;html=1;rounded=0;exitX=1;exitY=0.5;exitDx=0;exitDy=0;entryX=0;entryY=0.3;entryDx=0;entryDy=0;" parent="1" source="21" target="52" edge="1">
          <mxGeometry width="50" height="50" relative="1" as="geometry">
            <mxPoint x="680" y="260" as="sourcePoint" />
            <mxPoint x="730" y="210" as="targetPoint" />
          </mxGeometry>
        </mxCell>
        <mxCell id="119" value="" style="endArrow=none;html=1;rounded=0;exitX=1;exitY=0.5;exitDx=0;exitDy=0;entryX=0;entryY=0.3;entryDx=0;entryDy=0;" parent="1" source="22" target="52" edge="1">
          <mxGeometry width="50" height="50" relative="1" as="geometry">
            <mxPoint x="680" y="500" as="sourcePoint" />
            <mxPoint x="1040" y="550" as="targetPoint" />
          </mxGeometry>
        </mxCell>
        <mxCell id="120" value="" style="endArrow=none;html=1;rounded=0;exitX=1;exitY=0.5;exitDx=0;exitDy=0;entryX=0;entryY=0.3;entryDx=0;entryDy=0;" parent="1" source="23" target="52" edge="1">
          <mxGeometry width="50" height="50" relative="1" as="geometry">
            <mxPoint x="740" y="450" as="sourcePoint" />
            <mxPoint x="790" y="400" as="targetPoint" />
          </mxGeometry>
        </mxCell>
        <mxCell id="121" value="" style="endArrow=none;html=1;rounded=0;exitX=1;exitY=0.5;exitDx=0;exitDy=0;entryX=0;entryY=0.3;entryDx=0;entryDy=0;" parent="1" source="24" target="52" edge="1">
          <mxGeometry width="50" height="50" relative="1" as="geometry">
            <mxPoint x="740" y="450" as="sourcePoint" />
            <mxPoint x="790" y="400" as="targetPoint" />
          </mxGeometry>
        </mxCell>
        <mxCell id="122" value="" style="endArrow=none;html=1;rounded=0;exitX=1;exitY=0.5;exitDx=0;exitDy=0;entryX=0;entryY=0.3;entryDx=0;entryDy=0;" parent="1" source="25" target="52" edge="1">
          <mxGeometry width="50" height="50" relative="1" as="geometry">
            <mxPoint x="740" y="450" as="sourcePoint" />
            <mxPoint x="790" y="400" as="targetPoint" />
          </mxGeometry>
        </mxCell>
        <mxCell id="123" value="" style="endArrow=none;html=1;rounded=0;exitX=1;exitY=0.5;exitDx=0;exitDy=0;entryX=0;entryY=0.3;entryDx=0;entryDy=0;" parent="1" source="26" target="52" edge="1">
          <mxGeometry width="50" height="50" relative="1" as="geometry">
            <mxPoint x="740" y="450" as="sourcePoint" />
            <mxPoint x="790" y="400" as="targetPoint" />
          </mxGeometry>
        </mxCell>
        <mxCell id="124" value="" style="endArrow=none;html=1;rounded=0;exitX=1;exitY=0.5;exitDx=0;exitDy=0;entryX=0;entryY=0.3;entryDx=0;entryDy=0;" parent="1" source="27" target="52" edge="1">
          <mxGeometry width="50" height="50" relative="1" as="geometry">
            <mxPoint x="740" y="810" as="sourcePoint" />
            <mxPoint x="990" y="730" as="targetPoint" />
          </mxGeometry>
        </mxCell>
      </root>
    </mxGraphModel>
  </diagram>
</mxfile>
